<svg version="1.1" id="Layer_1" xmlns="http://www.w3.org/2000/svg" xmlns:xlink="http://www.w3.org/1999/xlink" x="0px" y="0px"
	 width="24px" height="24px" viewBox="0 0 24 24" enable-background="new 0 0 24 24" xml:space="preserve">
<g>
	<g>
		<path d="M12,23.5c-0.276,0-0.5-0.224-0.5-0.5c0-1.253-4.185-3-11-3C0.224,20,0,19.776,0,19.5V3
			c0-0.276,0.224-0.5,0.5-0.5c4.833,0,9.917,0.967,11.5,2.784C13.583,3.467,18.668,2.5,23.5,2.5C23.776,2.5,24,2.724,24,3v16.5
			c0,0.276-0.224,0.5-0.5,0.5c-6.815,0-11,1.747-11,3C12.5,23.276,12.276,23.5,12,23.5z M1,19.004c4.678,0.063,9.471,1.026,11,2.78
			c1.528-1.754,6.321-2.717,11-2.78V3.503C16.481,3.586,12.5,5.278,12.5,6.5C12.5,6.776,12.276,7,12,7s-0.5-0.224-0.5-0.5
			c0-1.222-3.981-2.914-10.5-2.997V19.004z"/>
	</g>
	<g>
		<path d="M12,23.344c-0.276,0-0.5-0.224-0.5-0.5V6.5C11.5,6.224,11.724,6,12,6s0.5,0.224,0.5,0.5v16.344
			C12.5,23.12,12.276,23.344,12,23.344z"/>
	</g>
	<g>
		<path d="M9.5,9.24c-0.06,0-0.12-0.011-0.179-0.033c-1.593-0.609-3.85-1.039-6.355-1.208
			C2.691,7.98,2.482,7.742,2.501,7.466C2.52,7.191,2.759,6.993,3.034,7.001c2.602,0.176,4.962,0.628,6.645,1.272
			c0.258,0.099,0.387,0.388,0.288,0.646C9.891,9.118,9.701,9.24,9.5,9.24z"/>
	</g>
	<g>
		<path d="M9.5,12.24c-0.06,0-0.12-0.011-0.179-0.033c-1.593-0.609-3.85-1.039-6.355-1.208
			c-0.275-0.019-0.484-0.257-0.465-0.533c0.019-0.275,0.258-0.47,0.533-0.465c2.602,0.176,4.962,0.628,6.645,1.272
			c0.258,0.099,0.387,0.388,0.288,0.646C9.891,12.118,9.701,12.24,9.5,12.24z"/>
	</g>
	<g>
		<path d="M9.5,15.24c-0.06,0-0.12-0.011-0.179-0.033c-1.593-0.609-3.85-1.039-6.355-1.208
			c-0.275-0.019-0.484-0.257-0.465-0.533c0.019-0.274,0.258-0.49,0.533-0.465c2.602,0.176,4.962,0.628,6.645,1.272
			c0.258,0.099,0.387,0.388,0.288,0.646C9.891,15.118,9.701,15.24,9.5,15.24z"/>
	</g>
	<g>
		<path d="M9.5,18.24c-0.06,0-0.12-0.011-0.179-0.033c-1.593-0.609-3.85-1.039-6.355-1.208
			c-0.275-0.019-0.484-0.257-0.465-0.533c0.019-0.274,0.258-0.486,0.533-0.465c2.602,0.176,4.962,0.628,6.645,1.272
			c0.258,0.099,0.387,0.388,0.288,0.646C9.891,18.118,9.701,18.24,9.5,18.24z"/>
	</g>
	<g>
		<path d="M14.5,9.24c-0.201,0-0.391-0.122-0.467-0.321c-0.099-0.258,0.03-0.547,0.288-0.646
			c1.686-0.645,4.045-1.097,6.645-1.272c0.279-0.003,0.516,0.189,0.533,0.465c0.019,0.275-0.189,0.514-0.465,0.533
			c-2.504,0.169-4.761,0.598-6.355,1.208C14.62,9.229,14.56,9.24,14.5,9.24z"/>
	</g>
	<g>
		<path d="M14.5,12.24c-0.201,0-0.391-0.122-0.467-0.321c-0.099-0.258,0.03-0.547,0.288-0.646
			c1.686-0.645,4.045-1.097,6.645-1.272c0.279-0.006,0.516,0.189,0.533,0.465c0.019,0.275-0.189,0.514-0.465,0.533
			c-2.504,0.169-4.761,0.598-6.355,1.208C14.62,12.229,14.56,12.24,14.5,12.24z"/>
	</g>
	<g>
		<path d="M14.5,15.24c-0.201,0-0.391-0.122-0.467-0.321c-0.099-0.258,0.03-0.547,0.288-0.646
			c1.686-0.645,4.045-1.097,6.645-1.272c0.279-0.021,0.516,0.189,0.533,0.465c0.019,0.276-0.189,0.515-0.465,0.533
			c-2.504,0.169-4.761,0.599-6.355,1.208C14.62,15.229,14.56,15.24,14.5,15.24z"/>
	</g>
	<g>
		<path d="M14.5,18.24c-0.201,0-0.391-0.122-0.467-0.321c-0.099-0.258,0.03-0.547,0.288-0.646
			c1.686-0.645,4.045-1.097,6.645-1.272c0.279-0.023,0.516,0.189,0.533,0.465c0.019,0.276-0.189,0.515-0.465,0.533
			c-2.504,0.169-4.761,0.599-6.355,1.208C14.62,18.229,14.56,18.24,14.5,18.24z"/>
	</g>
</g>
</svg>
