<svg version="1.1" id="Ebene_1" xmlns="http://www.w3.org/2000/svg" xmlns:xlink="http://www.w3.org/1999/xlink" x="0px" y="0px" viewBox="0 0 22 16" enable-background="new 0 0 22 16" xml:space="preserve">
<g>
	<path d="M6.38,1c0.647,0,1.231,0.057,1.765,0.174C8.676,1.289,9.129,1.48,9.512,1.741c0.377,0.262,0.672,0.61,0.883,1.048
		c0.206,0.432,0.31,0.973,0.31,1.612c0,0.692-0.155,1.27-0.464,1.732C9.93,6.595,9.472,6.973,8.86,7.267
		c0.833,0.243,1.45,0.671,1.859,1.28c0.411,0.613,0.612,1.346,0.612,2.206c0,0.697-0.131,1.297-0.394,1.801
		c-0.265,0.511-0.626,0.925-1.07,1.244c-0.448,0.322-0.963,0.559-1.54,0.713c-0.57,0.154-1.162,0.231-1.768,0.231H0V1H6.38z
		 M5.995,6.552c0.528,0,0.965-0.127,1.311-0.385c0.343-0.254,0.509-0.674,0.509-1.25c0-0.32-0.055-0.584-0.166-0.789
		C7.534,3.923,7.382,3.762,7.189,3.65C6.999,3.533,6.783,3.452,6.534,3.409C6.288,3.36,6.031,3.341,5.767,3.341H2.98v3.211H5.995z
		 M6.159,12.402c0.294,0,0.573-0.026,0.836-0.086c0.266-0.059,0.503-0.153,0.702-0.291c0.199-0.133,0.364-0.316,0.484-0.548
		c0.12-0.23,0.178-0.529,0.178-0.891c0-0.708-0.196-1.211-0.587-1.517C7.382,8.767,6.86,8.618,6.219,8.618H2.98v3.784H6.159z"/>
	<path d="M15.579,12.356c0.403,0.4,0.986,0.601,1.74,0.601c0.543,0,1.012-0.139,1.406-0.417c0.39-0.277,0.627-0.574,0.719-0.882
		h2.37c-0.381,1.198-0.959,2.053-1.747,2.568C19.287,14.742,18.337,15,17.229,15c-0.772,0-1.466-0.127-2.09-0.377
		c-0.623-0.253-1.144-0.608-1.582-1.07c-0.427-0.464-0.759-1.013-0.995-1.658c-0.234-0.641-0.352-1.351-0.352-2.121
		c0-0.744,0.122-1.439,0.362-2.081c0.244-0.645,0.582-1.201,1.026-1.667c0.445-0.469,0.973-0.839,1.588-1.11
		c0.615-0.269,1.293-0.405,2.043-0.405c0.829,0,1.555,0.162,2.177,0.492c0.62,0.325,1.129,0.766,1.528,1.319
		c0.399,0.551,0.683,1.182,0.861,1.889c0.176,0.706,0.238,1.443,0.187,2.215h-7.071C14.912,11.212,15.174,11.956,15.579,12.356z
		 M18.671,7.128c-0.32-0.36-0.862-0.554-1.523-0.554c-0.43,0-0.786,0.073-1.071,0.223c-0.279,0.148-0.507,0.332-0.681,0.548
		c-0.174,0.22-0.292,0.453-0.361,0.701c-0.069,0.242-0.11,0.462-0.123,0.656h4.379C19.227,8.006,18.992,7.491,18.671,7.128z"/>
	<rect x="14.362" y="1.922" width="5.485" height="1.356"/>
</g>
</svg>
