<svg version="1.1" id="Ebene_1" xmlns="http://www.w3.org/2000/svg" xmlns:xlink="http://www.w3.org/1999/xlink" x="0px" y="0px"
	 viewBox="0 0 16 16" enable-background="new 0 0 16 16" xml:space="preserve">
<g>
	<path d="M8.373,8.992l-0.656-0.51c-0.2-0.166-0.473-0.385-0.473-0.786c0-0.402,0.273-0.658,0.511-0.895
		C8.519,6.2,9.283,5.56,9.283,4.21c0-1.388-0.874-2.119-1.292-2.465H9.12L10.305,1h-3.59C5.73,1,4.31,1.233,3.271,2.091
		C2.488,2.767,2.106,3.698,2.106,4.537c0,1.424,1.093,2.867,3.024,2.867c0.183,0,0.382-0.018,0.582-0.037
		C5.622,7.587,5.531,7.77,5.531,8.08c0,0.566,0.29,0.912,0.547,1.241c-0.82,0.057-2.351,0.147-3.481,0.841
		c-1.075,0.639-1.403,1.57-1.403,2.227C1.194,13.741,2.469,15,5.111,15c3.133,0,4.792-1.734,4.792-3.45
		C9.904,10.289,9.175,9.668,8.373,8.992z M5.987,6.893c-1.567,0-2.277-2.026-2.277-3.249c0-0.476,0.09-0.968,0.4-1.351
		C4.402,1.927,4.911,1.69,5.386,1.69c1.511,0,2.295,2.045,2.295,3.359c0,0.329-0.036,0.912-0.455,1.334
		C6.932,6.675,6.442,6.893,5.987,6.893z M6.004,14.235c-1.949,0-3.206-0.932-3.206-2.229c0-1.296,1.166-1.734,1.566-1.88
		C5.13,9.869,6.114,9.832,6.278,9.832c0.182,0,0.273,0,0.418,0.018c1.385,0.986,1.987,1.478,1.987,2.411
		C8.684,13.393,7.754,14.235,6.004,14.235z"/>
	<polygon points="12.974,6.865 12.974,5.04 12.073,5.04 12.073,6.865 10.25,6.865 10.25,7.777 12.073,7.777 12.073,9.614 
		12.974,9.614 12.974,7.777 14.806,7.777 14.806,6.865 	"/>
</g>
</svg>
