<svg version="1.1" id="Ebene_1" xmlns="http://www.w3.org/2000/svg" xmlns:xlink="http://www.w3.org/1999/xlink" x="0px" y="0px"
	 viewBox="0 0 16 16" enable-background="new 0 0 16 16" xml:space="preserve">
<path d="M2.054,0h11.893C15.076,0,16,0.836,16,2.054v11.893C16,15.164,15.076,16,13.946,16H2.054C0.924,16,0,15.164,0,13.946V2.054
	C0,0.836,0.924,0,2.054,0L2.054,0z M11.655,1.778c-0.396,0-0.72,0.324-0.72,0.72v1.724c0,0.396,0.324,0.72,0.72,0.72h1.808
	c0.396,0,0.72-0.324,0.72-0.72V2.498c0-0.396-0.324-0.72-0.72-0.72L11.655,1.778L11.655,1.778z M14.192,6.766h-1.408
	c0.133,0.435,0.205,0.896,0.205,1.373c0,2.661-2.227,4.819-4.973,4.819c-2.746,0-4.973-2.157-4.973-4.819
	c0-0.477,0.072-0.938,0.205-1.373H1.778v6.759c0,0.35,0.286,0.636,0.636,0.636h11.142c0.35,0,0.636-0.286,0.636-0.636L14.192,6.766
	L14.192,6.766z M8.015,4.852c-1.775,0-3.213,1.394-3.213,3.114s1.439,3.114,3.213,3.114c1.775,0,3.214-1.394,3.214-3.114
	S9.79,4.852,8.015,4.852z"/>
</svg>
