<svg version="1.1" id="Ebene_2" xmlns="http://www.w3.org/2000/svg" xmlns:xlink="http://www.w3.org/1999/xlink" x="0px" y="0px" viewBox="0 0 16 16" enable-background="new 0 0 16 16" xml:space="preserve">
<g>
	<g>
		<path d="M14.815,0H1.181C0.529,0,0,0.517,0,1.153v13.693C0,15.483,0.529,16,1.181,16h13.634C15.467,16,16,15.483,16,14.845V1.153
			C16,0.517,15.467,0,14.815,0z M4.745,13.634H2.371V5.999h2.374V13.634z M3.558,4.955c-0.761,0-1.376-0.617-1.376-1.376
			c0-0.759,0.615-1.376,1.376-1.376c0.759,0,1.375,0.617,1.375,1.376C4.934,4.338,4.317,4.955,3.558,4.955z M13.633,13.634h-2.37
			V9.921c0-0.886-0.017-2.025-1.234-2.025c-1.235,0-1.423,0.965-1.423,1.961v3.777H6.234V5.999H8.51v1.043h0.032
			c0.317-0.6,1.091-1.233,2.246-1.233c2.401,0,2.845,1.581,2.845,3.638V13.634z"/>
	</g>
</g>
</svg>
