<svg version="1.1" id="Ebene_1" xmlns="http://www.w3.org/2000/svg" xmlns:xlink="http://www.w3.org/1999/xlink" x="0px" y="0px"
	 width="100px" height="23px" viewBox="0 0 100 23" enable-background="new 0 0 100 23" xml:space="preserve">
<g>
	<path d="M3.477,14.06c0.025,1.596,1.364,2.24,2.806,2.24c1.056,0,2.395-0.412,2.395-1.699c0-1.107-1.519-1.494-4.145-2.06
		c-2.112-0.463-4.223-1.211-4.223-3.554c0-3.399,2.936-4.275,5.794-4.275c2.909,0,5.587,0.979,5.871,4.248H8.498
		C8.395,7.544,7.314,7.159,6,7.159c-0.824,0-2.034,0.155-2.034,1.236c0,1.314,2.06,1.494,4.145,1.983
		c2.137,0.489,4.222,1.262,4.222,3.735c0,3.501-3.038,4.635-6.077,4.635c-3.089,0-6.102-1.159-6.257-4.686h3.477V14.06z"/>
	<path d="M16.196,12.617c0.103,2.317,1.236,3.374,3.271,3.374c1.467,0,2.652-0.901,2.883-1.725h3.219
		c-1.031,3.142-3.219,4.481-6.232,4.481c-4.197,0-6.798-2.884-6.798-7.004c0-3.992,2.755-7.029,6.798-7.029
		c4.532,0,6.721,3.811,6.463,7.905h-9.604V12.617z M22.143,10.3c-0.335-1.854-1.133-2.833-2.909-2.833
		c-2.317,0-2.986,1.802-3.038,2.833H22.143z"/>
	<path d="M26.777,5.073h3.451v1.802h0.052c0.953-1.364,2.343-2.163,4.068-2.163c1.674,0,3.167,0.618,3.888,2.214
		c0.773-1.159,2.162-2.214,4.017-2.214c2.833,0,4.866,1.314,4.866,4.763v8.909h-3.656v-7.545c0-1.777-0.154-3.244-2.24-3.244
		c-2.06,0-2.446,1.699-2.446,3.373v7.416h-3.656v-7.467c0-1.545,0.103-3.321-2.215-3.321c-0.721,0-2.472,0.463-2.472,3.064v7.725
		h-3.656V5.073H26.777z"/>
	<path d="M48.713,5.073h3.476v1.7h0.052c0.876-1.417,2.317-2.06,3.965-2.06c4.172,0,6.052,3.373,6.052,7.158
		c0,3.554-1.957,6.876-5.845,6.876c-1.597,0-3.116-0.696-3.992-2.008h-0.052v6.334h-3.656V5.073z M58.6,11.767
		c0-2.112-0.849-4.3-3.193-4.3c-2.395,0-3.168,2.137-3.168,4.3s0.824,4.223,3.194,4.223C57.827,15.991,58.6,13.931,58.6,11.767z"/>
	<path d="M63.26,0h3.656v18.385H63.26V0z"/>
	<path d="M72.27,3.013h-3.656V0h3.656V3.013z M68.614,5.073h3.656v13.313h-3.656V5.073z"/>
	<path d="M82.93,9.759c-0.232-1.494-1.185-2.292-2.704-2.292c-2.343,0-3.116,2.368-3.116,4.325c0,1.906,0.747,4.197,3.038,4.197
		c1.699,0,2.678-1.081,2.911-2.704h3.527c-0.464,3.527-2.911,5.459-6.412,5.459c-4.017,0-6.721-2.833-6.721-6.824
		c0-4.145,2.472-7.209,6.798-7.209c3.141,0,6.025,1.648,6.257,5.047H82.93V9.759z"/>
	<path d="M90.37,12.617c0.103,2.317,1.236,3.374,3.269,3.374c1.467,0,2.653-0.901,2.884-1.725h3.218
		c-1.029,3.142-3.218,4.481-6.232,4.481c-4.197,0-6.797-2.884-6.797-7.004c0-3.992,2.756-7.029,6.797-7.029
		c4.532,0,6.721,3.811,6.463,7.905H90.37V12.617z M96.318,10.3c-0.334-1.854-1.133-2.833-2.909-2.833
		c-2.317,0-2.986,1.802-3.038,2.833H96.318z"/>
</g>
</svg>
