<svg version="1.1" id="Ebene_1" xmlns="http://www.w3.org/2000/svg" xmlns:xlink="http://www.w3.org/1999/xlink" x="0px" y="0px" viewBox="0 0 16 16" enable-background="new 0 0 16 16" xml:space="preserve">
<g>
	<path d="M8,0C3.582,0,0,3.582,0,8c0,3.276,1.97,6.09,4.789,7.327c-0.023-0.559-0.004-1.229,0.139-1.837
		c0.154-0.649,1.029-4.359,1.029-4.359S5.702,8.62,5.702,7.865c0-1.186,0.687-2.071,1.543-2.071c0.728,0,1.079,0.547,1.079,1.201
		c0,0.732-0.467,1.826-0.707,2.839c-0.2,0.849,0.426,1.541,1.263,1.541c1.516,0,2.537-1.947,2.537-4.253
		c0-1.753-1.181-3.066-3.329-3.066c-2.427,0-3.939,1.81-3.939,3.831c0,0.697,0.206,1.189,0.527,1.569
		c0.148,0.175,0.169,0.245,0.115,0.446c-0.038,0.147-0.127,0.502-0.163,0.642c-0.053,0.203-0.217,0.275-0.401,0.2
		C3.11,10.288,2.59,9.064,2.59,7.688c0-2.273,1.917-4.998,5.718-4.998c3.054,0,5.065,2.21,5.065,4.583
		c0,3.138-1.745,5.483-4.317,5.483c-0.864,0-1.676-0.467-1.954-0.997c0,0-0.464,1.843-0.563,2.199
		c-0.17,0.617-0.502,1.233-0.805,1.714C6.452,15.885,7.213,16,8,16c4.418,0,8-3.582,8-8C16,3.582,12.418,0,8,0z"/>
</g>
</svg>
