<svg version="1.1" id="Ebene_1" xmlns="http://www.w3.org/2000/svg" xmlns:xlink="http://www.w3.org/1999/xlink" x="0px" y="0px"
	 width="19px" height="24px" viewBox="0 0 19 24" enable-background="new 0 0 19 24" xml:space="preserve">
<path d="M12.868,9.408c0,3.261-2.657,5.905-5.934,5.905C3.657,15.313,1,12.67,1,9.408c0-3.261,2.657-5.905,5.934-5.905
	C10.211,3.503,12.868,6.147,12.868,9.408z M6.934,4.853c-2.528,0-4.577,2.039-4.577,4.555c0,2.516,2.049,4.555,4.577,4.555
	s4.577-2.039,4.577-4.555C11.511,6.892,9.462,4.853,6.934,4.853z"/>
<path d="M17.049,20.27c-0.302,0.301-0.794,0.301-1.097,0l-5.864-5.835c-0.303-0.301-0.303-0.79,0-1.091l0.739-0.735
	c0.303-0.301,0.794-0.301,1.097,0l5.864,5.835c0.303,0.301,0.303,0.79,0,1.091L17.049,20.27z"/>
</svg>
