<?xml version="1.0" encoding="utf-8"?>
<!-- Generator: Adobe Illustrator 17.0.0, SVG Export Plug-In . SVG Version: 6.00 Build 0)  -->
<!DOCTYPE svg PUBLIC "-//W3C//DTD SVG 1.1//EN" "http://www.w3.org/Graphics/SVG/1.1/DTD/svg11.dtd">
<svg version="1.1" id="Ebene_1" xmlns="http://www.w3.org/2000/svg" xmlns:xlink="http://www.w3.org/1999/xlink" x="0px" y="0px"
	 width="95px" height="22px" viewBox="0 0 95 22" enable-background="new 0 0 95 22" xml:space="preserve">
<g>
	<path d="M3.302,13.357c0.024,1.516,1.296,2.128,2.666,2.128c1.003,0,2.275-0.391,2.275-1.614c0-1.052-1.443-1.419-3.938-1.957
		c-2.006-0.44-4.012-1.15-4.012-3.376c0-3.229,2.789-4.061,5.504-4.061c2.764,0,5.308,0.93,5.577,4.036H8.072
		C7.974,7.167,6.947,6.801,5.699,6.801c-0.783,0-1.932,0.147-1.932,1.174c0,1.248,1.957,1.419,3.938,1.884
		c2.03,0.465,4.011,1.199,4.011,3.548c0,3.326-2.886,4.403-5.773,4.403c-2.935,0-5.797-1.101-5.944-4.452H3.302z"/>
	<path d="M15.385,11.986c0.098,2.201,1.174,3.205,3.107,3.205c1.394,0,2.519-0.856,2.739-1.639h3.058
		c-0.979,2.985-3.058,4.257-5.92,4.257c-3.987,0-6.458-2.74-6.458-6.654c0-3.792,2.617-6.678,6.458-6.678
		c4.305,0,6.385,3.62,6.14,7.51H15.385z M21.035,9.785c-0.318-1.761-1.076-2.691-2.764-2.691c-2.201,0-2.837,1.712-2.886,2.691
		H21.035z"/>
	<path d="M25.437,4.819h3.278v1.712h0.049c0.905-1.296,2.226-2.055,3.865-2.055c1.59,0,3.009,0.587,3.694,2.103
		c0.734-1.101,2.054-2.103,3.816-2.103c2.691,0,4.623,1.248,4.623,4.525v8.464h-3.473v-7.168c0-1.688-0.146-3.082-2.128-3.082
		c-1.957,0-2.324,1.614-2.324,3.204v7.045h-3.473v-7.094c0-1.468,0.098-3.155-2.104-3.155c-0.685,0-2.348,0.44-2.348,2.911v7.339
		h-3.473V4.819z"/>
	<path d="M46.276,4.819h3.302v1.615h0.049c0.832-1.346,2.201-1.957,3.767-1.957c3.963,0,5.749,3.204,5.749,6.8
		c0,3.376-1.859,6.532-5.553,6.532c-1.517,0-2.96-0.661-3.792-1.908h-0.049v6.017h-3.473V4.819z M55.669,11.179
		c0-2.006-0.807-4.085-3.033-4.085c-2.275,0-3.01,2.03-3.01,4.085c0,2.055,0.783,4.012,3.034,4.012
		C54.935,15.191,55.669,13.234,55.669,11.179z"/>
	<path d="M60.096,0h3.473v17.466h-3.473V0z"/>
	<path d="M68.656,2.862h-3.473V0h3.473V2.862z M65.182,4.819h3.473v12.647h-3.473V4.819z"/>
	<path d="M78.783,9.271c-0.22-1.419-1.126-2.177-2.569-2.177c-2.226,0-2.96,2.25-2.96,4.109c0,1.811,0.71,3.987,2.886,3.987
		c1.614,0,2.544-1.027,2.765-2.569h3.351c-0.441,3.351-2.765,5.186-6.091,5.186c-3.816,0-6.385-2.691-6.385-6.483
		c0-3.938,2.348-6.849,6.458-6.849c2.984,0,5.724,1.566,5.944,4.795H78.783z"/>
	<path d="M85.851,11.986c0.098,2.201,1.174,3.205,3.106,3.205c1.394,0,2.52-0.856,2.74-1.639h3.057
		c-0.978,2.985-3.057,4.257-5.92,4.257c-3.987,0-6.457-2.74-6.457-6.654c0-3.792,2.618-6.678,6.457-6.678
		c4.305,0,6.385,3.62,6.14,7.51H85.851z M91.501,9.785c-0.317-1.761-1.076-2.691-2.764-2.691c-2.201,0-2.837,1.712-2.886,2.691
		H91.501z"/>
</g>
</svg>
